<?xml version="1.0" standalone="no"?>
<!DOCTYPE svg PUBLIC "-//W3C//DTD SVG 20010904//EN"
 "http://www.w3.org/TR/2001/REC-SVG-20010904/DTD/svg10.dtd">
<svg version="1.0" xmlns="http://www.w3.org/2000/svg"
 width="700.000000pt" height="700.000000pt" viewBox="0 0 700.000000 700.000000"
 preserveAspectRatio="xMidYMid meet">
<metadata>
Created by potrace 1.14, written by Peter Selinger 2001-2017
</metadata>
<g transform="translate(0.000000,700.000000) scale(0.100000,-0.100000)"
fill="#000000" stroke="none">
<path d="M2274 5451 c-23 -10 -54 -35 -69 -54 -28 -35 -29 -35 -67 -21 -122
43 -369 63 -518 43 -65 -9 -191 -35 -220 -46 -8 -3 -23 -8 -33 -10 -33 -6
-170 -65 -257 -110 -242 -127 -433 -308 -539 -513 -41 -79 -91 -224 -91 -265
0 -20 -7 -26 -42 -35 -97 -24 -155 -75 -184 -163 -36 -107 -11 -230 60 -301
41 -41 108 -80 156 -91 22 -5 28 -16 43 -83 20 -84 54 -161 104 -233 49 -70
164 -172 241 -212 l68 -36 13 -88 c7 -48 14 -95 16 -103 2 -8 6 -31 9 -50 4
-19 9 -42 11 -50 2 -8 7 -30 10 -48 56 -329 208 -717 402 -1022 35 -55 152
-220 163 -230 3 -3 23 -27 45 -55 132 -167 349 -369 545 -509 157 -113 383
-238 560 -311 259 -106 630 -213 838 -241 26 -3 49 -8 52 -9 3 -2 33 -6 65
-10 33 -3 67 -8 75 -10 32 -8 221 -18 345 -17 179 0 289 10 469 43 117 22 327
80 391 109 22 10 51 21 65 25 51 15 280 134 361 189 140 92 235 173 479 405
57 54 82 71 105 72 31 1 37 1 120 19 88 18 98 21 165 41 100 31 221 80 261
105 106 67 166 216 135 340 -7 27 -79 104 -98 104 -7 0 -21 7 -32 15 -18 14
-18 15 1 47 33 57 50 120 46 179 -3 48 2 67 38 144 80 174 152 429 194 690 11
67 14 476 5 545 -5 36 -12 84 -15 108 -14 108 -67 300 -120 433 -204 510 -586
906 -1004 1038 -198 63 -427 85 -485 48 -52 -35 -44 -103 26 -214 22 -35 114
-157 205 -271 316 -398 390 -538 448 -857 3 -16 8 -82 12 -145 l5 -115 -23 34
c-46 66 -136 89 -215 56 -34 -14 -36 -14 -29 3 4 9 10 38 13 65 14 136 -115
248 -252 220 -58 -12 -54 -13 -59 13 -11 58 -52 112 -106 139 -69 35 -214 0
-301 -71 -172 -142 -281 -327 -314 -532 -25 -156 -18 -276 27 -464 13 -53 13
-60 -6 -90 -25 -42 -108 -118 -128 -118 -9 0 -41 5 -70 11 -30 6 -64 12 -76
14 -129 18 -456 176 -560 270 -22 19 -22 22 -7 63 21 63 20 107 -5 197 -27
100 -70 172 -139 236 -162 150 -352 225 -499 198 -24 -5 -50 -6 -58 -3 -23 9
-105 138 -159 249 -67 139 -69 144 -55 194 35 133 13 344 -50 485 -51 111
-155 255 -207 284 -12 7 -13 14 -4 38 20 50 16 144 -7 189 -53 101 -191 153
-289 106z"/>
</g>
</svg>
